<svg xmlns="http://www.w3.org/2000/svg" xml:space="preserve" viewBox="0 0 1000 1000">
  <path d="M123 142c-46 2-81 25-101 66-13 25-12 11-12 298l1 261 5 14c12 34 40 62 74 74l13 4h796l13-5c35-14 60-40 73-74l4-13 1-261c0-287 1-273-12-298-15-32-43-55-78-64-11-3-48-3-384-3l-393 1zm719 91c0 3-334 238-337 238-2 0-316-237-316-239a36761 36761 0 0 1 653 1zM302 434c110 84 201 151 202 151s90-62 197-139l196-139 1 222c0 213 0 223-4 227-1 3-6 7-8 9l-6 4H120l-6-4-9-9c-4-6-4-7-4-239-1-128 0-233 1-233l200 150z"/>
</svg>
