<svg xmlns="http://www.w3.org/2000/svg" xml:space="preserve" style="enable-background:new 0 0 512 512" viewBox="0 0 512 512"><path d="M181.5 389.9c0 1.8-2.1 3.3-4.7 3.3-3 .3-5.1-1.2-5.1-3.3 0-1.8 2.1-3.3 4.7-3.3 2.8-.2 5.1 1.2 5.1 3.3zm-28.2-4.1c-.6 1.8 1.2 3.9 3.9 4.4 2.4.9 5.1 0 5.6-1.8s-1.2-3.9-3.9-4.7c-2.3-.6-5 .3-5.6 2.1zm40.1-1.5c-2.6.6-4.4 2.4-4.2 4.4.3 1.8 2.6 3 5.4 2.4 2.6-.6 4.4-2.4 4.2-4.2-.3-1.7-2.8-2.9-5.4-2.6zm59.7-347.7C127.3 36.6 31 132.2 31 258c0 100.6 63.3 186.7 153.8 217 11.6 2.1 15.7-5.1 15.7-11 0-5.6-.3-36.7-.3-55.7 0 0-63.5 13.6-76.8-27 0 0-10.3-26.4-25.2-33.2 0 0-20.8-14.2 1.5-14 0 0 22.6 1.8 35 23.4 19.9 35 53.2 24.9 66.1 19 2.1-14.5 8-24.6 14.5-30.6-50.7-5.6-101.9-13-101.9-100.3 0-24.9 6.9-37.5 21.4-53.4-2.4-5.9-10.1-30.2 2.4-61.6 19-5.9 62.6 24.5 62.6 24.5 18.1-5.1 37.7-7.7 57-7.7 19.3 0 38.8 2.6 57 7.7 0 0 43.6-30.5 62.6-24.5 12.4 31.5 4.7 55.7 2.4 61.6 14.5 16.1 23.4 28.6 23.4 53.4 0 87.6-53.4 94.5-104.2 100.3 8.3 7.2 15.4 20.8 15.4 42.1 0 30.6-.3 68.4-.3 75.8 0 5.9 4.2 13.1 15.7 11C419.5 444.7 481 358.6 481 258c0-125.8-102.1-221.4-227.9-221.4zM119.2 349.5c-1.2.9-.9 3 .6 4.7 1.5 1.5 3.5 2.1 4.7.9 1.2-.9.9-3-.6-4.7-1.4-1.4-3.5-2-4.7-.9zm-9.8-7.3c-.6 1.2.3 2.6 2.1 3.5 1.5.9 3.3.6 3.9-.6.6-1.2-.3-2.6-2.1-3.5-1.8-.6-3.3-.3-3.9.6zm29.4 32.3c-1.5 1.2-.9 3.9 1.2 5.6 2.1 2.1 4.7 2.4 5.9.9 1.2-1.2.6-3.9-1.2-5.6-2-2.1-4.7-2.4-5.9-.9zm-10.4-13.4c-1.5.9-1.5 3.3 0 5.4 1.5 2.1 3.9 3 5.1 2.1 1.5-1.2 1.5-3.5 0-5.6-1.3-2.1-3.6-3-5.1-1.9z"/></svg>