<svg clip-rule="evenodd" fill-rule="evenodd" stroke-linejoin="round" stroke-miterlimit="2" viewBox="0 0 560 400" xmlns="http://www.w3.org/2000/svg"><g fill-rule="nonzero"><path d="m380 114.328-18.22 204.116-81.902 22.706-81.677-22.674L180 114.328z" fill="#264de4"/><path d="m346.18 305.447 15.572-174.427H280v192.774z" fill="#2965f1"/><g fill="#ebebeb"><path d="m221.726 206.736 2.244 25.038H280v-25.038zM280 156.059h-62.783l2.276 25.038H280zM280 297.812v-26.05l-.11.03-27.884-7.53-1.783-19.97h-25.134l3.508 39.314 51.288 14.238z"/></g><path d="M227.069 58.85h30.325V71.53H239.75v12.682h17.644v12.681H227.07zM263.46 58.85h30.324v11.027h-17.643v2.206h17.643v25.362H263.46V85.867h17.644V83.66h-17.644zM299.85 58.85h30.325v11.027H312.53v2.206h17.644v25.362h-30.326V85.867h17.644V83.66H299.85z"/><path d="m310.745 231.774-2.906 32.472-27.926 7.537v26.049l51.33-14.226.376-4.23 5.884-65.917.61-6.723 4.521-50.677h-62.72v25.038h35.28l-2.278 25.64h-33.003v25.037z" fill="#fff"/></g></svg>